<?xml version="1.0" encoding="utf-8"?>
<!-- Generator: Adobe Illustrator 15.0.0, SVG Export Plug-In . SVG Version: 6.00 Build 0)  -->
<!DOCTYPE svg PUBLIC "-//W3C//DTD SVG 1.1//EN" "http://www.w3.org/Graphics/SVG/1.1/DTD/svg11.dtd">
<svg version="1.1" id="Layer_1" xmlns="http://www.w3.org/2000/svg" xmlns:xlink="http://www.w3.org/1999/xlink" x="0px" y="0px"
	 width="50px" height="50px" viewBox="0 0 50 50" enable-background="new 0 0 50 50" xml:space="preserve">
<path fill="#0F4556" d="M25,3.75c11.718,0,21.25,9.533,21.25,21.25c0,11.718-9.532,21.25-21.25,21.25
	C13.283,46.25,3.75,36.718,3.75,25C3.75,13.283,13.283,3.75,25,3.75 M25,0.75C11.607,0.75,0.75,11.607,0.75,25
	c0,13.393,10.857,24.25,24.25,24.25c13.393,0,24.25-10.857,24.25-24.25C49.25,11.607,38.393,0.75,25,0.75L25,0.75z"/>
<polygon fill="#0F4556" points="39.489,12.371 31.498,12.312 25,20.279 18.502,12.312 10.511,12.371 20.98,25.208 10.511,38.045 
	18.502,38.104 25,30.137 31.498,38.104 39.489,38.045 29.02,25.208 "/>
</svg>
