
<svg version="1.1" id="GS_Medal" xmlns="http://www.w3.org/2000/svg" xmlns:xlink="http://www.w3.org/1999/xlink" x="0px"
	 y="0px" width="569px" height="303px" viewBox="0 0 569 303" enable-background="new 0 0 569 303" xml:space="preserve">
<polygon id="GSM-Background" points="551.104,151.678 417.599,285.184 152.381,285.153 18.905,151.678 156.781,13.802
	413.488,14.061 "/>
<polygon id="GSM-Border" fill="none" stroke="#D0DABC" stroke-width="2" stroke-miterlimit="10" points="551.104,151.678
	417.599,285.184 152.381,285.153 18.905,151.678 156.781,13.802 413.488,14.061 "/>
<g id="GraphicShark-Text">
	<g id="SHARK">
		<polygon fill="#D0DABC" points="219.992,169.073 220.05,189.052 197.951,189.052 197.951,169.061 190.374,169.061 190.374,205.589
			197.951,205.589 197.951,196.662 220.073,196.662 220.13,216.63 227.707,216.607 227.57,169.051 	"/>
		<path fill="#D0DABC" d="M118.854,172.815c-1.736,1.684-3.808,4.78-3.808,9.978v14.023l29.757-0.139v6.14
			c0,5.607-4.718,6.13-6.15,6.156l-16.029,0.084v-5.686h-7.578v13.335l23.628-0.123c5.509,0,13.707-3.667,13.707-13.767v-13.783
			l-29.757,0.138v-6.379c0-2.037,0.478-3.5,1.46-4.472c1.62-1.603,4.271-1.585,4.26-1.585l16.459,0.003v6.157h7.578V169.13h-23.853
			C127.632,169.108,122.607,169.18,118.854,172.815"/>
		<path fill="#D0DABC" d="M261.819,182.896v22.692h7.576v-8.927h22.491v19.955h7.576V169.13h-23.591
			C270.222,169.13,261.819,172.796,261.819,182.896 M291.886,189.052h-22.491v-6.155c0-5.613,4.979-6.133,6.476-6.156h16.015V189.052
			z"/>
		<path fill="#D0DABC" d="M344.448,216.617h7.578v-19.955h12.26v8.927h7.578v-9.372c7.173-1.769,9.899-8.5,9.918-13.271l0.333-13.816
			h-37.667V216.617z M352.026,176.739h22.326l-0.146,6.064l-0.001,0.093c0,1.027-0.295,6.155-6.131,6.155h-16.048V176.739z"/>
		<path fill="#D0DABC" d="M445.043,189.495v-9.368h-7.575v8.925h-12.261v-19.991h-7.575v47.557h7.575v-19.955h16.047
			c5.587,0,6.105,4.736,6.132,6.155v13.8h7.578v-13.8C454.964,198.046,452.243,191.269,445.043,189.495"/>
	</g>
	<g id="GRAPHIC">
		<path fill="#D0DABC" d="M154.825,121.5h-12.398v4.323h10.245v33.03h-22.643c-9.883,0-10.239-9.243-10.247-10.29V88.47h10.189
			v-4.323H117.63c-1.189,0-2.153,0.968-2.153,2.161v62.256c0,0.148,0.02,3.664,1.777,7.193c1.686,3.386,5.27,7.42,12.775,7.42h24.796
			c1.188,0,2.152-0.968,2.152-2.161v-37.353C156.977,122.469,156.013,121.5,154.825,121.5"/>
		<path fill="#D0DABC" d="M204.016,84.147h-36.793c-1.189,0-2.152,0.967-2.152,2.161v76.801h4.304v-37.289
			c3.761-0.009,11.928-0.043,20.291-0.166v10.458h4.305v-10.647c9.581-1.24,12.197-9.674,12.197-14.255V86.308
			C206.168,85.114,205.204,84.147,204.016,84.147 M201.863,111.211c0,0.404-0.114,9.923-10.08,10.087
			c-9.061,0.151-18.327,0.189-22.408,0.199V88.47h32.488V111.211z"/>
		<path fill="#D0DABC" d="M254.238,83.975h-24.884c-4.919,0.069-14.321,3.234-14.69,14.715c-0.398,12.36-0.006,37.21-0.001,37.458
			l4.305-0.069c-0.002-0.102-0.07-4.394-0.121-10.255h33.239v37.286h4.305V86.137C256.392,84.941,255.427,83.975,254.238,83.975
			 M218.815,121.5c-0.046-7.654-0.042-16.662,0.152-22.671c0.322-10.017,9.42-10.509,10.418-10.532h22.701V121.5H218.815z"/>
		<path fill="#D0DABC" d="M303.6,84.234h-24.865c-0.285-0.007-6.394,0.006-10.625,4.226c-2.557,2.55-3.854,6.015-3.854,10.299v64.351
			h4.305v-37.287l22.642-0.001c11.508-0.001,14.55-9.558,14.55-14.611V86.396C305.752,85.202,304.787,84.234,303.6,84.234
			 M301.445,111.211c0,0.42-0.115,10.287-10.243,10.288l-22.642,0.001V98.759c0-9.908,9.112-10.2,10.158-10.201h22.727V111.211z"/>
		<polygon fill="#D0DABC" points="351.097,121.5 318.153,121.5 318.153,84.214 313.848,84.214 313.848,136.113 318.153,136.113
			318.153,125.824 351.097,125.824 351.097,163.109 355.4,163.109 355.4,84.214 351.097,84.214 	"/>
		<path fill="#D0DABC" d="M454.533,98.702V86.307c0-1.193-0.965-2.161-2.152-2.161h-36.739c-1.189,0-2.154,0.968-2.154,2.161v62.257
			c0.001,4.883,2.988,14.173,14.284,14.385c4.046,0.075,8.131,0.101,11.783,0.101c7.248,0,12.782-0.1,12.865-0.101l-0.08-4.323
			c-0.123,0.002-12.499,0.225-24.486,0c-9.697-0.182-10.051-9.059-10.06-10.062V88.47h32.434v10.232H454.533z"/>
		<path fill="#D0DABC" d="M386.397,88.47h3.587v-4.323h-5.739h-18.368v4.323h16.215v70.383h-4.1v4.324h5.739v-0.068
			c0.165,0.041,0.335,0.068,0.514,0.068h18.543v-4.324h-16.391V88.47z"/>
	</g>
	</g>
<g id="Circles">
	<circle fill="none" stroke="#D0DABC" stroke-miterlimit="10" cx="527.791" cy="151.678" r="3.646"/>
	<circle fill="none" stroke="#D0DABC" stroke-miterlimit="10" cx="38.183" cy="151.678" r="3.646"/>
</g>
	<g id="Border">
		<g id="Right_Border">
			<polyline id="BottomLine" fill="none" stroke="#D0DABC" stroke-width="2" stroke-miterlimit="10" points="521.53,109.699
				563.509,151.678 414.964,300.223 		"/>

				<line id="Dashed_1_" fill="none" stroke="#D0DABC" stroke-width="2" stroke-miterlimit="10" stroke-dasharray="7.918,7.918" x1="513.105" y1="101.269" x2="459.93" y2="48.061"/>
		</g>
		<g id="LeftBorder">
			<polyline id="TopLine" fill="none" stroke="#D0DABC" stroke-width="2" stroke-miterlimit="10" points="50.009,193.503
				8.03,151.524 156.575,2.979 		"/>

				<line id="Dashed" fill="none" stroke="#D0DABC" stroke-width="2" stroke-miterlimit="10" stroke-dasharray="7.918,7.918" x1="58.435" y1="201.933" x2="111.609" y2="255.141"/>
		</g>
	</g>
</svg>
