<?xml version="1.0" encoding="utf-8"?>
<!-- Generator: Adobe Illustrator 21.0.0, SVG Export Plug-In . SVG Version: 6.00 Build 0)  -->
<svg version="1.1" id="Layer_1" xmlns="http://www.w3.org/2000/svg" xmlns:xlink="http://www.w3.org/1999/xlink" x="0px" y="0px"
	 viewBox="0 0 562 314" style="enable-background:new 0 0 562 314;" xml:space="preserve">
<style type="text/css">
	.st0{fill:none;stroke:#D0DABC;stroke-width:2;stroke-miterlimit:10;}
	.st1{fill:#D0DABC;}
	.st2{fill:none;stroke:#D0DABC;stroke-miterlimit:10;}
	.st3{fill:none;stroke:#D0DABC;stroke-width:2;stroke-miterlimit:10;stroke-dasharray:7.9183,7.9183;}
	#GSM-Background{opacity:0.5;}
</style>
<polygon id="GSM-Background" points="546.1,158.2 412.6,291.7 147.4,291.7 13.9,158.2 151.8,20.3 408.5,20.6 "/>
<polygon id="GSM-Border" class="st0" points="546.1,158.2 412.6,291.7 147.4,291.7 13.9,158.2 151.8,20.3 408.5,20.6 "/>
<g id="GraphicShark-Text">
	<g id="SHARK">
		<polygon id="XMLID_221_" class="st1" points="215,175.6 215,195.6 193,195.6 193,175.6 185.4,175.6 185.4,212.1 193,212.1
			193,203.2 215.1,203.2 215.1,223.1 222.7,223.1 222.6,175.6 		"/>
		<path id="XMLID_220_" class="st1" d="M113.9,179.3c-1.7,1.7-3.8,4.8-3.8,10v14l29.8-0.1v6.1c0,5.6-4.7,6.1-6.1,6.2l-16,0.1v-5.7
			H110v13.3l23.6-0.1c5.5,0,13.7-3.7,13.7-13.8v-13.8l-29.8,0.1v-6.4c0-2,0.5-3.5,1.5-4.5c1.6-1.6,4.3-1.6,4.3-1.6l16.5,0v6.2h7.6
			v-13.8h-23.9C122.6,175.6,117.6,175.7,113.9,179.3z"/>
		<path id="XMLID_217_" class="st1" d="M256.8,189.4v22.7h7.6v-8.9h22.5v20h7.6v-47.5h-23.6C265.2,175.6,256.8,179.3,256.8,189.4z
			 M286.9,195.6h-22.5v-6.2c0-5.6,5-6.1,6.5-6.2h16V195.6z"/>
		<path id="XMLID_204_" class="st1" d="M339.4,223.1h7.6v-20h12.3v8.9h7.6v-9.4c7.2-1.8,9.9-8.5,9.9-13.3l0.3-13.8h-37.7V223.1z
			 M347,183.2h22.3l-0.1,6.1l0,0.1c0,1-0.3,6.2-6.1,6.2h-16V183.2z"/>
		<path id="XMLID_203_" class="st1" d="M440,196v-9.4h-7.6v8.9h-12.3v-20h-7.6v47.6h7.6v-20h16c5.6,0,6.1,4.7,6.1,6.2v13.8h7.6
			v-13.8C450,204.5,447.2,197.8,440,196z"/>
	</g>
	<g id="GRAPHIC">
		<path id="XMLID_202_" class="st1" d="M149.8,128h-12.4v4.3h10.2v33H125c-9.9,0-10.2-9.2-10.2-10.3V95H125v-4.3h-12.3
			c-1.2,0-2.2,1-2.2,2.2v62.3c0,0.1,0,3.7,1.8,7.2c1.7,3.4,5.3,7.4,12.8,7.4h24.8c1.2,0,2.2-1,2.2-2.2v-37.4
			C152,129,151,128,149.8,128z"/>
		<path id="XMLID_199_" class="st1" d="M199,90.6h-36.8c-1.2,0-2.2,1-2.2,2.2v76.8h4.3v-37.3c3.8,0,11.9,0,20.3-0.2v10.5h4.3V132
			c9.6-1.2,12.2-9.7,12.2-14.3V92.8C201.2,91.6,200.2,90.6,199,90.6z M196.9,117.7c0,0.4-0.1,9.9-10.1,10.1
			c-9.1,0.2-18.3,0.2-22.4,0.2V95h32.5V117.7z"/>
		<path id="XMLID_196_" class="st1" d="M249.2,90.5h-24.9c-4.9,0.1-14.3,3.2-14.7,14.7c-0.4,12.4,0,37.2,0,37.5l4.3-0.1
			c0-0.1-0.1-4.4-0.1-10.3h33.2v37.3h4.3v-77C251.4,91.4,250.4,90.5,249.2,90.5z M213.8,128c0-7.7,0-16.7,0.2-22.7
			c0.3-10,9.4-10.5,10.4-10.5h22.7V128H213.8z"/>
		<path id="XMLID_193_" class="st1" d="M298.6,90.7h-24.9c-0.3,0-6.4,0-10.6,4.2c-2.6,2.5-3.9,6-3.9,10.3v64.3h4.3v-37.3l22.6,0
			c11.5,0,14.5-9.6,14.5-14.6V92.9C300.8,91.7,299.8,90.7,298.6,90.7z M296.4,117.7c0,0.4-0.1,10.3-10.2,10.3l-22.6,0v-22.7
			c0-9.9,9.1-10.2,10.2-10.2h22.7V117.7z"/>
		<polygon id="XMLID_183_" class="st1" points="346.1,128 313.2,128 313.2,90.7 308.8,90.7 308.8,142.6 313.2,142.6 313.2,132.3
			346.1,132.3 346.1,169.6 350.4,169.6 350.4,90.7 346.1,90.7 		"/>
		<path id="XMLID_182_" class="st1" d="M449.5,105.2V92.8c0-1.2-1-2.2-2.2-2.2h-36.7c-1.2,0-2.2,1-2.2,2.2v62.3
			c0,4.9,3,14.2,14.3,14.4c4,0.1,8.1,0.1,11.8,0.1c7.2,0,12.8-0.1,12.9-0.1l-0.1-4.3c-0.1,0-12.5,0.2-24.5,0
			c-9.7-0.2-10.1-9.1-10.1-10.1V95h32.4v10.2H449.5z"/>
		<path id="XMLID_181_" class="st1" d="M381.4,95h3.6v-4.3h-5.7h-18.4V95h16.2v70.4H373v4.3h5.7v-0.1c0.2,0,0.3,0.1,0.5,0.1h18.5
			v-4.3h-16.4V95z"/>
	</g>
</g>
<g>
	<circle id="XMLID_179_" class="st2" cx="522.8" cy="158.2" r="3.6"/>
	<circle id="XMLID_178_" class="st2" cx="33.2" cy="158.2" r="3.6"/>
</g>
<g>
	<g id="XMLID_172_">
		<polyline id="XMLID_177_" class="st0" points="516.5,116.2 558.5,158.2 410,306.7 		"/>
		<g id="XMLID_173_">
			<g>
				<line class="st0" x1="516.5" y1="116.2" x2="513.7" y2="113.4"/>
				<line class="st3" x1="508.1" y1="107.8" x2="454.9" y2="54.6"/>
				<line class="st0" x1="452.1" y1="51.8" x2="449.3" y2="48.9"/>
			</g>
		</g>
	</g>
	<g id="XMLID_169_">
		<polyline id="XMLID_171_" class="st0" points="45,200 3,158 151.6,9.5 		"/>
		<g id="XMLID_170_">
			<g>
				<line class="st0" x1="45" y1="200" x2="47.8" y2="202.8"/>
				<line class="st3" x1="53.4" y1="208.4" x2="106.6" y2="261.6"/>
				<line class="st0" x1="109.4" y1="264.4" x2="112.2" y2="267.3"/>
			</g>
		</g>
	</g>
</g>
</svg>
