<?xml version="1.0" encoding="utf-8"?>
<!-- Generator: Adobe Illustrator 15.0.0, SVG Export Plug-In . SVG Version: 6.00 Build 0)  -->
<!DOCTYPE svg PUBLIC "-//W3C//DTD SVG 1.1//EN" "http://www.w3.org/Graphics/SVG/1.1/DTD/svg11.dtd">
<svg version="1.1" id="Layer_1" xmlns="http://www.w3.org/2000/svg" xmlns:xlink="http://www.w3.org/1999/xlink" x="0px" y="0px"
	 width="40px" height="40px" viewBox="0 0 40 40" enable-background="new 0 0 40 40" xml:space="preserve">
<g>
	<defs>
		<rect id="SVGID_1_" width="40" height="40"/>
	</defs>
	<clipPath id="SVGID_2_">
		<use xlink:href="#SVGID_1_"  overflow="visible"/>
	</clipPath>
	<path clip-path="url(#SVGID_2_)" fill="#D1DBBD" d="M39.723,20c0,10.893-8.83,19.723-19.723,19.723
		C9.108,39.723,0.278,30.893,0.278,20C0.278,9.107,9.108,0.277,20,0.277C30.893,0.277,39.723,9.107,39.723,20"/>
	<path clip-path="url(#SVGID_2_)" fill="#0F4556" d="M23.547,29.227c0.38,0.167,0.551,0.611,0.38,0.989l-1.087,2.408
		c-1.734-1.997-2.161-2.981-2.452-5.196C21.414,28.172,22.447,28.743,23.547,29.227 M28.555,22.021l-0.037-0.021
		c-1.159-0.627-2.607-0.196-3.233,0.963l1.558,0.844l2.021,3.385c-2.648-0.596-4.9-1.348-6.978-3.04l-0.518-0.423l-0.633,0.223
		c-4.656,1.642-8.233,2.061-11.115,1.284c0.82-1.673,1.59-3.135,2.703-4.373c1.359-1.512,3.128-2.537,5.57-3.226l0.78-0.22
		l0.083-0.806c0.212-2.075,0.669-3.618,1.436-4.858c0.499-0.804,1.163-1.542,2.081-2.297l2.335,7.138l1.965-0.601
		c1.261-0.386,1.97-1.721,1.584-2.981l-2.009,0.615L23.53,5.625l-1.313,0.899c-1.914,1.311-3.164,2.537-4.054,3.974
		c-0.857,1.385-1.4,3.013-1.686,5.076c-2.508,0.815-4.406,2.001-5.93,3.695c-1.479,1.646-2.409,3.558-3.393,5.581
		c-0.089,0.183-0.179,0.367-0.27,0.553l-0.557,1.139l1.169,0.487c2.016,0.84,4.361,1.136,6.971,0.877
		c1.927-0.191,4.04-0.679,6.442-1.487c3.049,2.266,6.349,2.914,10.137,3.659l2.627,0.517L28.555,22.021z"/>
</g>
</svg>
